Coordinates
version=1
nRows=9
nColumns=42
inDegrees=yes

Units are S.I. units (second, meters, Newtons, ...)
If the header above contains a line with 'inDegrees', this indicates whether rotational values are in degrees (yes) or radians (no).

endheader
time	pelvis_tilt	pelvis_list	pelvis_rotation	pelvis_tx	pelvis_ty	pelvis_tz	hip_flexion_r	hip_adduction_r	hip_rotation_r	knee_angle_r	knee_angle_r_beta	ankle_angle_r	subtalar_angle_r	mtp_angle_r	hip_flexion_l	hip_adduction_l	hip_rotation_l	knee_angle_l	knee_angle_l_beta	ankle_angle_l	subtalar_angle_l	mtp_angle_l	lumbar_extension	lumbar_bending	lumbar_rotation	sh_tx_r	sh_ty_r	sh_tz_r	sh_plane_elev_r	sh_elev_r	sh_axial_rot_r	elbow_flex_r	pro_sup_r	sh_tx_l	sh_ty_l	sh_tz_l	sh_plane_elev_l	sh_elev_l	sh_axial_rot_l	elbow_flex_l	pro_sup_l
      7.01666670	     -4.93775844	     -0.77764976	     -2.37271525	      0.30360056	      0.92506008	     -0.01161549	      3.67307445	     -5.83608084	     -6.81520050	      2.59363452	      0.04526746	      4.61762173	     -0.32252988	     -7.49999987	      4.07754996	     -4.93316024	     -9.45053597	      1.49061674	      0.02601617	      7.05006259	     -3.36787093	     -7.49999987	      4.25548300	      2.95142600	     -4.91739581	      0.00136382	     -0.01501383	     -0.00541463	      2.35267718	      7.88484240	     -2.35900418	     24.32382699	    109.80131787	     -0.00534485	      0.01278975	     -0.00441383	     78.48165180	     61.92415905	    -10.52285586	     12.49902247	      2.59716914
      7.03333330	     -5.11980034	     -0.70139957	     -2.29384271	      0.29924502	      0.92790145	     -0.01652263	      3.85115271	     -5.97737868	     -7.05086220	      2.46947389	      0.04310045	      4.49635509	     -0.15598046	     -7.49999987	      4.40200342	     -4.77595642	     -9.41512997	      1.59861827	      0.02790115	      6.98684811	     -3.45159760	     -7.49999987	      4.32989553	      2.96828866	     -5.02577824	      0.00260681	     -0.01512071	     -0.00545752	      3.38494788	      8.25190960	     -2.07667725	     24.15642618	    110.16539256	     -0.00506897	      0.01157171	     -0.00446213	     78.79502401	     60.69946163	    -11.81339831	     11.83692095	      2.60361571
      7.05000000	     -5.01683494	     -0.63689247	     -2.16990784	      0.30384145	      0.92816045	     -0.01168264	      3.60593036	     -6.01482184	     -7.14296069	      2.22983489	      0.03891796	      4.33299298	     -0.05913467	     -7.49999987	      4.33602372	     -4.69678798	     -9.39913455	      1.69417406	      0.02956892	      6.94650671	     -3.45610291	     -7.49999987	      4.12197765	      2.78738575	     -4.73334624	      0.00163280	     -0.01502673	     -0.00543453	      3.33490499	      8.13181448	     -1.72861931	     23.85545292	    108.82266234	     -0.00560895	      0.01107057	     -0.00462162	     79.36462122	     59.33816570	    -12.83708746	     12.07932256	      2.53989751
      7.06666670	     -5.30371463	     -0.67666503	     -2.06235982	      0.30316236	      0.92738023	     -0.01232923	      4.02042296	     -5.98798959	     -7.22338005	      2.49953607	      0.04362513	      4.31555413	     -0.04506781	     -7.49999987	      4.98352624	     -4.76394027	     -9.25927514	      2.32562704	      0.04058985	      7.06630881	     -3.74785623	     -7.49999987	      4.18002506	      3.22155662	     -5.31332667	      0.00242016	     -0.01196940	     -0.00539405	      4.85128747	      8.43444226	     -0.83589043	     24.19823274	    101.93191314	     -0.00783876	      0.01133576	     -0.00482394	     79.13145978	     58.25984574	    -16.75898342	     13.33985333	      8.31460938
      7.08333330	     -4.97001632	     -0.61829613	     -2.02829438	      0.30356822	      0.92784651	     -0.01123882	      3.30332534	     -5.98495514	     -7.21872117	      1.87689536	      0.03275800	      4.09399067	      0.05429070	     -7.49999987	      4.33160470	     -4.67319120	     -9.35576576	      1.78221719	      0.03110556	      6.89267289	     -3.47614015	     -7.49999987	      3.83149252	      2.68837963	     -4.18986923	     -0.00041707	     -0.01494728	     -0.00543826	      3.91409184	      8.24904221	     -1.77390012	     23.72881961	    109.84179783	     -0.00678340	      0.01018490	     -0.00471185	     81.03966812	     57.67674627	    -14.14507829	     12.33733179	      2.76637425
      7.10000000	     -4.94141696	     -0.63729580	     -1.96049602	      0.30337461	      0.93078514	     -0.01177312	      3.13300160	     -5.91078561	     -7.32655362	      1.67878074	      0.02930025	      3.91559607	      0.13796091	     -7.49999987	      4.32437697	     -4.71000436	     -9.33764611	      1.79355709	      0.03130348	      6.81250135	     -3.39350063	     -7.49999987	      3.73973313	      2.63040282	     -3.84069734	     -0.00063585	     -0.01495933	     -0.00538750	      3.62430383	      8.22689713	     -1.32278073	     23.68113619	    109.58917070	     -0.00589962	      0.00904959	     -0.00472945	     81.94330484	     56.76718131	    -14.22952415	     12.04910451	      2.79478211
      7.11666670	     -4.86938904	     -0.65109533	     -1.91956732	      0.30337529	      0.93079066	     -0.01131410	      2.92936590	     -5.85744936	     -7.34765197	      1.47454128	      0.02573560	      3.77261131	      0.15168025	     -7.49999987	      4.24844274	     -4.72647995	     -9.36700872	      1.81314301	      0.03164532	      6.78117412	     -3.32354756	     -7.49999987	      3.65634875	      2.62336730	     -3.91257242	     -0.00003117	     -0.01488016	     -0.00544131	      4.43032717	      8.44971007	     -1.20645041	     23.42630001	    107.58048424	     -0.00504510	      0.00799032	     -0.00483123	     82.14996036	     55.49000181	    -15.48155460	     12.25289805	      2.75108598
      7.13333330	     -4.81611352	     -0.63921863	     -1.81009967	      0.30312383	      0.93040900	     -0.01166058	      2.70161706	     -5.80893160	     -7.41311375	      1.20907719	      0.02110238	      3.67356620	      0.06934696	     -7.49999987	      4.23273696	     -4.71379674	     -9.41717750	      1.85275327	      0.03233664	      6.69674152	     -3.16369386	     -7.49999987	      3.49591529	      2.60520679	     -4.31895003	      0.00125117	     -0.01483457	     -0.00537448	      5.37241113	      8.66228433	     -1.73074714	     23.54122183	    108.08185033	     -0.00586708	      0.00701666	     -0.00483710	     81.82603256	     54.25892918	    -15.86019207	     12.31252739	      2.87809942
      7.15000000	     -4.88548238	     -0.63292771	     -1.75274562	      0.29877279	      0.92413691	     -0.01558172	      2.73023542	     -5.85182053	     -7.57489319	      1.09173552	      0.01905438	      3.61102663	     -0.11043373	     -7.49999987	      4.44682809	     -4.64821208	     -9.21148251	      1.99208035	      0.03476836	      6.74605997	     -3.48309884	     -7.49999987	      3.44761399	      2.65506648	     -3.74625815	     -0.00009764	     -0.01476274	     -0.00538496	      4.11841330	      8.98450999	     -1.93188581	     24.05858026	    108.84927671	     -0.00510537	      0.00523234	     -0.00491117	     82.48667602	     53.63178676	    -16.50175508	     12.58812113	      2.95161030
